<?xml version="1.0" encoding="UTF-8"?>
<svg width="1200pt" height="1200pt" version="1.1" viewBox="0 0 1200 1200" xmlns="http://www.w3.org/2000/svg">
 <path d="m1050 784.82v218.02c0 17.344-14.156 31.5-31.5 31.5h-632.44c-17.344 0-31.5-14.156-31.5-31.5v-217.82l1.0781 0.046875 269.9 57.562v12.609c0 28.922 23.578 52.5 52.5 52.5h48.562c28.922 0 52.5-23.578 52.5-52.5v-12.609zm-744.79-116.48c-4.6406-2.2031-9.2344-4.5469-13.688-7.0781-10.359-5.7656-22.312-5.2031-32.109 1.5l-9 6.1875c-12 8.25-27.703 6.9844-38.25-3.0469-5.9062-5.625-11.531-11.438-16.969-17.531-9.4219-10.594-10.406-25.781-2.3438-37.5l6-8.6719c6.7031-9.7969 7.2656-21.75 1.5-32.109-8.7188-15.609-15.703-32.344-20.672-49.875-3.2344-11.391-12.094-19.453-23.766-21.609l-8.7188-1.5938c-14.156-2.625-24.281-14.297-24.891-28.641-0.1875-4.1719-0.28125-8.3438-0.28125-12.562s0.09375-8.3906 0.28125-12.562c0.60938-14.344 10.781-26.062 24.891-28.688l8.7188-1.5938c11.672-2.1562 20.531-10.219 23.766-21.609 4.9688-17.531 11.953-34.266 20.672-49.875 5.7656-10.359 5.2031-22.312-1.5-32.109l-6-8.6719c-8.0625-11.719-7.0781-26.906 2.3438-37.5 5.3906-6.0938 11.062-11.906 16.969-17.531 10.547-10.031 26.25-11.297 38.25-3.0469l9 6.1875c9.7969 6.75 21.75 7.2656 32.109 1.5 15.609-8.7188 32.344-15.703 49.875-20.672 11.391-3.2344 19.453-12.094 21.609-23.766l2.7188-14.719c2.5781-13.922 13.922-24 28.031-24.844 6.0469-0.375 12.188-0.5625 18.328-0.5625s12.281 0.1875 18.328 0.5625c14.109 0.89062 25.453 10.922 28.031 24.844l2.7188 14.766c2.1562 11.672 10.219 20.531 21.609 23.766 17.578 5.0156 34.266 11.953 49.875 20.672 10.359 5.7656 22.312 5.2031 32.109-1.5l9-6.1875c12-8.25 27.703-7.0312 38.25 3.0469 5.8594 5.625 11.531 11.438 16.922 17.531 9.4219 10.594 10.406 25.828 2.3438 37.5l-6 8.7188c-6.7031 9.7969-7.2656 21.75-1.5 32.109 5.1562 9.2344 9.7031 18.844 13.594 28.781h-60.375c-10.922 0-21.141 3.0469-29.859 8.3906-26.812-46.875-77.297-78.422-135.14-78.422-85.922 0-155.58 69.656-155.58 155.58 0 44.484 18.703 84.656 48.656 113.02zm372.79 95.391c-17.344 0-31.5 14.156-31.5 31.5v60.047c0 17.344 14.156 31.5 31.5 31.5h48.562c17.344 0 31.5-14.156 31.5-31.5v-60.047c0-17.344-14.156-31.5-31.5-31.5zm101.06 57 267.32-57.047c16.969-3.6094 31.5-14.156 31.5-31.5v-191.21c0-17.344-14.156-31.5-31.5-31.5h-182.95v-81.797c0-19.828-16.172-35.953-35.953-35.953l-250.36-0.046874c-19.828 0-35.953 16.172-35.953 35.953v81.797l-183 0.046874c-17.344 0-31.5 14.156-31.5 31.5v191.26c0 17.344 14.156 31.5 31.5 31.5l267.32 57.047v-25.547c0-28.922 23.578-52.5 52.5-52.5h48.562c28.922 0 52.5 23.578 52.5 52.5zm37.125-311.26v-70.547h-227.76v70.547z" fill-rule="evenodd"/>
</svg>
