<?xml version="1.0" encoding="UTF-8"?>
<svg width="1200pt" height="1200pt" version="1.1" viewBox="0 0 1200 1200" xmlns="http://www.w3.org/2000/svg">
 <path d="m224.86 953.95h79.969c-32.953-16.641-55.5-50.812-55.5-90.281v-73.688c0-130.6 105.89-236.48 236.48-236.48h87.516c76.547 0 146.02 30.188 197.21 79.266 13.875 12.844-0.9375 34.688-18.797 34.688h-156.1c-14.625 0-28.172 5.0625-38.812 13.781-10.641 8.6719-18.328 20.906-21.281 35.344l-20.484 99.609c-2.2969 11.109-12.562 18.609-23.859 17.484l-91.594-9.5156c-9.8906-1.0312-18.75 6.1875-19.734 16.078-1.0312 9.8906 6.1875 18.75 16.078 19.734l83.672 8.6719c6.375 0.70312 11.625 3.7031 15.422 8.9062 3.7969 5.1562 5.1094 11.062 3.8438 17.297l-7.7812 37.828c-1.9688 9.75 4.3125 19.266 14.016 21.234 9.75 1.9688 19.266-4.3125 21.234-14.062l44.438-216.14c1.2188-6 4.3594-11.062 8.7188-14.578 4.3125-3.5156 9.9375-5.5781 16.125-5.5781h378.56c4.0781 0 7.7812 0.79688 10.969 2.2969 3.2344 1.5469 6.1406 3.8906 8.6719 6.9844s4.2656 6.4688 5.1094 9.9844c0.84375 3.4688 0.89062 7.2656 0.09375 11.203l-51.656 251.21c-2.1562 10.359-11.016 17.625-21.609 17.625h-700.92c-13.453 0-24.422-11.016-24.422-24.422 0-13.453 11.016-24.422 24.422-24.422zm318.14-756.74c88.828 0 160.82 72 160.82 160.82 0 88.828-72 160.82-160.82 160.82s-160.82-72-160.82-160.82c0-88.828 72-160.82 160.82-160.82zm222.19 607.55c21 0 36.047 16.219 33.609 36.234-2.4375 20.016-21.469 36.281-42.469 36.281s-36.047-16.219-33.562-36.281c2.4375-20.016 21.469-36.234 42.469-36.234z" fill-rule="evenodd"/>
</svg>
