<?xml version="1.0" encoding="UTF-8" standalone="no"?>
<!DOCTYPE svg PUBLIC "-//W3C//DTD SVG 1.1//EN" "http://www.w3.org/Graphics/SVG/1.1/DTD/svg11.dtd">
<svg width="100%" height="100%" viewBox="0 0 2000 2000" version="1.1" xmlns="http://www.w3.org/2000/svg" xmlns:xlink="http://www.w3.org/1999/xlink" xml:space="preserve" xmlns:serif="http://www.serif.com/" style="fill-rule:evenodd;clip-rule:evenodd;stroke-linejoin:round;stroke-miterlimit:2;">
    <g transform="matrix(1,0,0,1,-6819,-3642)">
        <g id="Artboard3" transform="matrix(0.761905,0,0,1.18273,12137.9,4336.26)">
            <rect x="-6981" y="-587" width="2625" height="1691" style="fill:none;"/>
            <g transform="matrix(5.52548,0,0,3.55946,-8668.66,-1300.13)">
                <g transform="matrix(3.48311,1.08855,-1.08855,3.48311,-428.323,-1003.01)">
                    <path d="M400.147,281.56C400.147,279.591 401.745,277.993 403.713,277.993C405.681,277.993 407.279,279.591 407.279,281.56C407.279,302.873 389.975,320.177 368.661,320.177C347.348,320.177 330.043,302.873 330.043,281.56C330.043,279.591 331.641,277.993 333.61,277.993C335.578,277.993 337.176,279.591 337.176,281.56C337.176,298.937 351.284,313.045 368.661,313.045C386.039,313.045 400.147,298.937 400.147,281.56Z" style="fill:rgb(49,184,157);"/>
                </g>
                <g transform="matrix(1.33586,0.197317,-0.197317,1.33586,22.2691,-186.075)">
                    <circle cx="368.661" cy="281.56" r="35.052" style="fill:rgb(254,151,0);"/>
                </g>
                <g transform="matrix(1.90928,0,0,1.90928,-149.903,-169.538)">
                    <path d="M368.661,246.508C388.007,246.508 403.713,262.214 403.713,281.56C403.713,300.905 388.007,316.611 368.661,316.611C349.316,316.611 333.61,300.905 333.61,281.56C333.61,262.214 349.316,246.508 368.661,246.508ZM368.661,260.141C356.84,260.141 347.242,269.738 347.242,281.56C347.242,293.381 356.84,302.978 368.661,302.978C380.483,302.978 390.08,293.381 390.08,281.56C390.08,269.738 380.483,260.141 368.661,260.141Z" style="fill:rgb(48,184,157);"/>
                </g>
                <g transform="matrix(6.28089,0,0,6.28089,-1263.42,-860.739)">
                    <path d="M250.856,231.84C250.856,231.025 251.517,230.364 252.332,230.364C252.333,230.364 252.334,230.364 252.334,230.364C252.668,230.364 252.988,230.496 253.224,230.732C253.46,230.968 253.592,231.288 253.592,231.622C253.592,231.925 253.592,232.164 253.592,232.164L253.64,232.164C253.896,231.62 254.308,231.136 254.876,230.712C255.444,230.288 256.208,230.076 257.168,230.076C258.976,230.076 260.176,230.788 260.768,232.212C261.184,231.476 261.704,230.936 262.328,230.592C262.952,230.248 263.696,230.076 264.56,230.076C265.328,230.076 265.976,230.204 266.504,230.46C267.032,230.716 267.46,231.068 267.788,231.516C268.116,231.964 268.352,232.488 268.496,233.088C268.64,233.688 268.712,234.332 268.712,235.02L268.712,241.884L265.832,241.884L265.832,235.356C265.832,235.004 265.8,234.664 265.736,234.336C265.672,234.008 265.56,233.72 265.4,233.472C265.24,233.224 265.024,233.028 264.752,232.884C264.48,232.74 264.128,232.668 263.696,232.668C263.248,232.668 262.868,232.752 262.556,232.92C262.244,233.088 261.988,233.312 261.788,233.592C261.588,233.872 261.444,234.192 261.356,234.552C261.268,234.912 261.224,235.276 261.224,235.644L261.224,241.884L258.344,241.884L258.344,235.02C258.344,234.3 258.192,233.728 257.888,233.304C257.584,232.88 257.08,232.668 256.376,232.668C255.896,232.668 255.492,232.748 255.164,232.908C254.836,233.068 254.564,233.284 254.348,233.556C254.132,233.828 253.976,234.14 253.88,234.492C253.784,234.844 253.736,235.212 253.736,235.596L253.736,241.884L250.856,241.884L250.856,231.84Z" style="fill:rgb(49,184,157);"/>
                    <path d="M274.16,237.132C274.256,237.996 274.592,238.668 275.168,239.148C275.744,239.628 276.44,239.868 277.256,239.868C277.976,239.868 278.58,239.72 279.068,239.424C279.333,239.263 279.58,239.08 279.81,238.875C280.151,238.569 280.66,238.548 281.025,238.824C281.03,238.82 281.031,238.821 281.032,238.822C281.424,239.117 281.643,239.587 281.619,240.077C281.594,240.567 281.329,241.012 280.91,241.267C280.662,241.406 280.415,241.536 280.16,241.644C279.328,241.996 278.456,242.172 277.544,242.172C276.68,242.172 275.864,242.028 275.096,241.74C274.328,241.452 273.664,241.044 273.104,240.516C272.544,239.988 272.1,239.352 271.772,238.608C271.444,237.864 271.28,237.036 271.28,236.124C271.28,235.212 271.444,234.384 271.772,233.64C272.1,232.896 272.544,232.26 273.104,231.732C273.664,231.204 274.328,230.796 275.096,230.508C275.864,230.22 276.68,230.076 277.544,230.076C278.344,230.076 279.076,230.216 279.74,230.496C280.404,230.776 280.972,231.18 281.444,231.708C281.916,232.236 282.284,232.888 282.548,233.664C282.812,234.44 282.944,235.332 282.944,236.34L282.944,237.132L274.16,237.132ZM280.064,234.972C280.048,234.124 279.784,233.456 279.272,232.968C278.76,232.48 278.048,232.236 277.136,232.236C276.272,232.236 275.588,232.484 275.084,232.98C274.58,233.476 274.272,234.14 274.16,234.972L280.064,234.972Z" style="fill:rgb(49,184,157);"/>
                    <path d="M294.752,240.156L294.704,240.156C294.288,240.86 293.728,241.372 293.024,241.692C292.32,242.012 291.56,242.172 290.744,242.172C289.848,242.172 289.052,242.016 288.356,241.704C287.66,241.392 287.064,240.964 286.568,240.42C286.072,239.876 285.696,239.236 285.44,238.5C285.184,237.764 285.056,236.972 285.056,236.124C285.056,235.276 285.192,234.484 285.464,233.748C285.736,233.012 286.116,232.372 286.604,231.828C287.092,231.284 287.68,230.856 288.368,230.544C289.056,230.232 289.808,230.076 290.624,230.076C291.168,230.076 291.648,230.132 292.064,230.244C292.48,230.356 292.848,230.5 293.168,230.676C293.488,230.852 293.76,231.04 293.984,231.24C294.208,231.44 294.392,231.636 294.536,231.828L294.608,231.828L294.608,227.751C294.608,227.369 294.76,227.003 295.03,226.733C295.3,226.463 295.666,226.311 296.048,226.311C296.43,226.311 296.796,226.463 297.067,226.733C297.337,227.003 297.488,227.369 297.488,227.751C297.488,231.609 297.488,241.884 297.488,241.884L294.752,241.884L294.752,240.156ZM287.936,236.124C287.936,236.572 288.012,237.004 288.164,237.42C288.316,237.836 288.54,238.204 288.836,238.524C289.132,238.844 289.488,239.1 289.904,239.292C290.32,239.484 290.792,239.58 291.32,239.58C291.848,239.58 292.32,239.484 292.736,239.292C293.152,239.1 293.508,238.844 293.804,238.524C294.1,238.204 294.324,237.836 294.476,237.42C294.628,237.004 294.704,236.572 294.704,236.124C294.704,235.676 294.628,235.244 294.476,234.828C294.324,234.412 294.1,234.044 293.804,233.724C293.508,233.404 293.152,233.148 292.736,232.956C292.32,232.764 291.848,232.668 291.32,232.668C290.792,232.668 290.32,232.764 289.904,232.956C289.488,233.148 289.132,233.404 288.836,233.724C288.54,234.044 288.316,234.412 288.164,234.828C288.012,235.244 287.936,235.676 287.936,236.124Z" style="fill:rgb(49,184,157);"/>
                    <path d="M303.656,231.972L303.704,231.972C303.928,231.492 304.324,231.056 304.892,230.664C305.46,230.272 306.192,230.076 307.088,230.076C307.856,230.076 308.508,230.204 309.044,230.46C309.58,230.716 310.016,231.052 310.352,231.468C310.688,231.884 310.928,232.364 311.072,232.908C311.216,233.452 311.288,234.02 311.288,234.612L311.288,241.884L308.408,241.884L308.408,236.052C308.408,235.732 308.392,235.376 308.36,234.984C308.328,234.592 308.244,234.224 308.108,233.88C307.972,233.536 307.76,233.248 307.472,233.016C307.184,232.784 306.792,232.668 306.296,232.668C305.816,232.668 305.412,232.748 305.084,232.908C304.756,233.068 304.484,233.284 304.268,233.556C304.052,233.828 303.896,234.14 303.8,234.492C303.704,234.844 303.656,235.212 303.656,235.596L303.656,241.884L300.776,241.884L300.776,227.751C300.776,227.369 300.928,227.003 301.198,226.733C301.468,226.463 301.834,226.311 302.216,226.311C303.012,226.311 303.656,226.956 303.656,227.751C303.656,229.428 303.656,231.972 303.656,231.972Z" style="fill:rgb(49,184,157);"/>
                    <path d="M321.752,240.3L321.68,240.3C321.264,240.956 320.736,241.432 320.096,241.728C319.456,242.024 318.752,242.172 317.984,242.172C317.456,242.172 316.94,242.1 316.436,241.956C315.932,241.812 315.484,241.596 315.092,241.308C314.7,241.02 314.384,240.66 314.144,240.228C313.904,239.796 313.784,239.292 313.784,238.716C313.784,238.092 313.896,237.56 314.12,237.12C314.344,236.68 314.644,236.312 315.02,236.016C315.396,235.72 315.832,235.484 316.328,235.308C316.824,235.132 317.34,235 317.876,234.912C318.412,234.824 318.952,234.768 319.496,234.744C320.04,234.72 320.552,234.708 321.032,234.708L321.752,234.708L321.752,234.396C321.752,233.676 321.504,233.136 321.008,232.776C320.512,232.416 319.88,232.236 319.112,232.236C318.504,232.236 317.936,232.344 317.408,232.56C316.912,232.763 316.479,233.033 316.11,233.37C316.071,233.407 316.01,233.405 315.972,233.367C315.912,233.308 315.818,233.213 315.705,233.101C315.37,232.766 315.22,232.29 315.301,231.825C315.383,231.359 315.686,230.962 316.114,230.762C316.33,230.672 316.547,230.584 316.772,230.508C317.628,230.22 318.512,230.076 319.424,230.076C320.24,230.076 320.928,230.168 321.488,230.352C322.048,230.536 322.512,230.772 322.88,231.06C323.248,231.348 323.532,231.68 323.732,232.056C323.932,232.432 324.076,232.812 324.164,233.196C324.252,233.58 324.304,233.952 324.32,234.312C324.336,234.672 324.344,234.988 324.344,235.26L324.344,241.884L321.752,241.884L321.752,240.3ZM321.584,236.724L320.984,236.724C320.584,236.724 320.136,236.74 319.64,236.772C319.144,236.804 318.676,236.88 318.236,237C317.796,237.12 317.424,237.296 317.12,237.528C316.816,237.76 316.664,238.084 316.664,238.5C316.664,238.772 316.724,239 316.844,239.184C316.964,239.368 317.12,239.524 317.312,239.652C317.504,239.78 317.72,239.872 317.96,239.928C318.2,239.984 318.44,240.012 318.68,240.012C319.672,240.012 320.404,239.776 320.876,239.304C321.348,238.832 321.584,238.188 321.584,237.372L321.584,236.724Z" style="fill:rgb(49,184,157);"/>
                </g>
            </g>
        </g>
    </g>
</svg>
